HIERARCHY
ROOT Hips
{
	OFFSET 0.000000 0.000000 0.000000
	CHANNELS 6 Xposition Yposition Zposition Zrotation Yrotation Xrotation 
	JOINT LHipJoint
	{
		OFFSET 0.000000 0.000000 0.000000
		CHANNELS 3 Zrotation Yrotation Xrotation
		JOINT LeftUpLeg
		{
			OFFSET 1.363060 -1.794630 0.839290
			CHANNELS 3 Zrotation Yrotation Xrotation
			JOINT LeftLeg
			{
				OFFSET 2.448110 -6.726130 0.000000
				CHANNELS 3 Zrotation Yrotation Xrotation
				JOINT LeftFoot
				{
					OFFSET 2.562200 -7.039590 0.000000
					CHANNELS 3 Zrotation Yrotation Xrotation
					JOINT LeftToeBase
					{
						OFFSET 0.157640 -0.433110 2.322550
						CHANNELS 3 Zrotation Yrotation Xrotation
						End Site
						{
							OFFSET 0.000000 0.000000 0.000000
						}
					}
				}
			}
		}
	}
	JOINT RHipJoint
	{
		OFFSET 0.000000 0.000000 0.000000
		CHANNELS 3 Zrotation Yrotation Xrotation
		JOINT RightUpLeg
		{
			OFFSET -1.305520 -1.794630 0.839290
			CHANNELS 3 Zrotation Yrotation Xrotation
			JOINT RightLeg
			{
				OFFSET -2.542530 -6.985550 0.000000
				CHANNELS 3 Zrotation Yrotation Xrotation
				JOINT RightFoot
				{
					OFFSET -2.568260 -7.056230 0.000000
					CHANNELS 3 Zrotation Yrotation Xrotation
					JOINT RightToeBase
					{
						OFFSET -0.164730 -0.452590 2.363150
						CHANNELS 3 Zrotation Yrotation Xrotation
						End Site
						{
							OFFSET 0.000000 0.000000 0.000000
						}
					}
				}
			}
		}
	}
	JOINT LowerBack
	{
		OFFSET 0.000000 0.000000 0.000000
		CHANNELS 3 Zrotation Yrotation Xrotation
		JOINT Spine
		{
			OFFSET 0.028270 2.035590 -0.193380
			CHANNELS 3 Zrotation Yrotation Xrotation
			JOINT Spine1
			{
				OFFSET 0.056720 2.048850 -0.042750
				CHANNELS 3 Zrotation Yrotation Xrotation
				JOINT Neck
				{
					OFFSET 0.000000 0.000000 0.000000
					CHANNELS 3 Zrotation Yrotation Xrotation
					JOINT Neck1
					{
						OFFSET -0.054170 1.746240 0.172020
						CHANNELS 3 Zrotation Yrotation Xrotation
						JOINT Head
						{
							OFFSET 0.104070 1.761360 -0.123970
							CHANNELS 3 Zrotation Yrotation Xrotation
							End Site
							{
								OFFSET 0.000000 0.000000 0.000000
							}
						}
					}
				}
				JOINT LeftShoulder
				{
					OFFSET 0.000000 0.000000 0.000000
					CHANNELS 3 Zrotation Yrotation Xrotation
					JOINT LeftArm
					{
						OFFSET 3.362410 1.200890 -0.311210
						CHANNELS 3 Zrotation Yrotation Xrotation
						JOINT LeftForeArm
						{
							OFFSET 4.983000 -0.000000 -0.000000
							CHANNELS 3 Zrotation Yrotation Xrotation
							JOINT LeftHand
							{
								OFFSET 3.483560 -0.000000 -0.000000
								CHANNELS 3 Zrotation Yrotation Xrotation
								JOINT LeftFingerBase
								{
									OFFSET 0.000000 0.000000 0.000000
									CHANNELS 3 Zrotation Yrotation Xrotation
									JOINT LeftHandIndex1
									{
										OFFSET 0.715260 -0.000000 -0.000000
										CHANNELS 3 Zrotation Yrotation Xrotation
										End Site
										{
											OFFSET 0.000000 0.000000 0.000000
										}
									}
								}
								JOINT LThumb
								{
									OFFSET 0.000000 0.000000 0.000000
									CHANNELS 3 Zrotation Yrotation Xrotation
									End Site
									{
										OFFSET 0.000000 0.000000 0.000000
									}
								}
							}
						}
					}
				}
				JOINT RightShoulder
				{
					OFFSET 0.000000 0.000000 0.000000
					CHANNELS 3 Zrotation Yrotation Xrotation
					JOINT RightArm
					{
						OFFSET -3.136600 1.374050 -0.404650
						CHANNELS 3 Zrotation Yrotation Xrotation
						JOINT RightForeArm
						{
							OFFSET -5.241900 -0.000000 -0.000000
							CHANNELS 3 Zrotation Yrotation Xrotation
							JOINT RightHand
							{
								OFFSET -3.444170 -0.000000 -0.000000
								CHANNELS 3 Zrotation Yrotation Xrotation
								JOINT RightFingerBase
								{
									OFFSET 0.000000 0.000000 0.000000
									CHANNELS 3 Zrotation Yrotation Xrotation
									JOINT RightHandIndex1
									{
										OFFSET -0.622530 -0.000000 -0.000000
										CHANNELS 3 Zrotation Yrotation Xrotation
										End Site
										{
											OFFSET 0.000000 0.000000 0.000000
										}
									}
								}
								JOINT RThumb
								{
									OFFSET 0.000000 0.000000 0.000000
									CHANNELS 3 Zrotation Yrotation Xrotation
									End Site
									{
										OFFSET 0.000000 0.000000 0.000000
									}
								}
							}
						}
					}
				}
			}
		}
	}
}
MOTION
Frames: 10
Frame Time: 0.008333
12.540542 18.109727 -6.383220 -125.487250 -83.323486 126.521208 0.381105 -1.358420 -1.244374 -18.275679 6.728535 -24.577700 0.041549 9.114132 23.717369 0.860938 3.833029 20.215081 1.175500 -6.881500 -19.364700 1.342077 -1.702159 2.435951 22.961769 -4.306625 17.110542 -0.189071 -5.876945 14.545258 3.338115 -26.232094 25.549781 -0.169600 -2.652700 7.313300 8.046566 1.493410 -0.567062 0.786140 2.063440 -2.048215 -6.151021 1.114518 0.753078 0.074828 -0.130556 -6.125345 6.115585 -1.029476 8.115503 0.115400 -0.228100 3.429500 -5.637152 -4.619338 0.454606 -77.677852 10.058035 9.890097 6.322911 -16.190664 -1.909301 -1.453304 -1.575253 -13.364084 16.008310 11.249885 3.935600 -7.125000 0.000000 0.000000 -8.562300 42.801900 0.468100 7.019045 4.734956 0.193693 78.517650 -2.064182 25.644882 -8.657796 20.121587 -2.433157 1.470010 0.146630 6.131053 -17.545826 -7.564999 2.681300 7.125000 0.000000 0.000000 6.732900 -38.165000 1.139300 
12.351713 18.116592 -6.381741 -128.572346 -83.614637 129.513492 0.435678 -1.273115 -1.182768 -18.766906 6.766797 -23.935273 0.081150 9.179067 23.958557 0.841159 3.528256 19.454895 1.153700 -6.819700 -19.182400 1.337238 -1.612466 2.394633 22.488752 -3.909103 16.446598 -0.531213 -6.643935 16.572605 3.268932 -26.860828 26.406362 -0.192400 -2.824700 7.791000 7.472121 1.482744 -0.591501 0.755933 2.059036 -2.059513 -6.021513 1.108293 0.709802 0.069392 -0.138045 -6.137573 6.137452 -1.046048 8.211199 0.114200 -0.229600 3.512100 -5.646955 -4.619663 0.450292 -77.644739 9.984315 9.656996 6.215676 -16.049500 -1.880252 -1.462343 -1.569065 -13.182643 16.003474 11.274957 3.942200 -7.125000 0.000000 0.000000 -8.568000 42.824600 0.463600 7.004579 4.747977 0.177408 78.634327 -2.282896 25.361234 -8.605690 20.050720 -2.418675 1.472125 0.134860 6.153011 -17.664162 -7.461522 2.660500 7.125000 0.000000 0.000000 6.613800 -38.053500 1.137200 
12.168798 18.125674 -6.381530 -131.567544 -83.885954 132.434276 0.480561 -1.193310 -1.119006 -19.227564 6.874240 -23.369842 0.112404 9.232318 24.169144 0.853255 3.165285 18.846279 1.151600 -6.813800 -19.164800 1.320651 -1.512950 2.341195 22.077877 -3.519808 15.717684 -0.907469 -7.407478 18.623838 3.158484 -27.461185 27.341922 -0.214100 -2.978600 8.219000 6.911263 1.464696 -0.602268 0.731289 2.044467 -2.074240 -5.873550 1.095871 0.651185 0.055815 -0.146093 -6.154036 6.162626 -1.062758 8.300411 0.115500 -0.231600 3.594700 -5.652553 -4.625490 0.444726 -77.624763 9.885199 9.447539 6.127532 -15.931343 -1.857074 -1.471517 -1.562185 -13.048476 16.012049 11.289123 3.948100 -7.125000 0.000000 0.000000 -8.558100 42.835200 0.460800 6.991960 4.765631 0.160982 78.735252 -2.495085 25.060861 -8.563900 19.988020 -2.407130 1.472903 0.125094 6.193749 -17.749728 -7.372305 2.640000 7.125000 0.000000 0.000000 6.526600 -37.957000 1.137500 
11.992536 18.136869 -6.383114 -134.309813 -84.136946 135.116941 0.513534 -1.121771 -1.054008 -19.642819 7.056558 -22.891227 0.138303 9.277299 24.359049 0.891994 2.762567 18.402052 1.168400 -6.861400 -19.305400 1.291065 -1.406163 2.275857 21.757603 -3.114938 14.943732 -1.313748 -8.159321 20.677300 3.016569 -28.057020 28.327926 -0.232200 -3.101600 8.561700 6.373355 1.436116 -0.590281 0.713406 2.015617 -2.091387 -5.708090 1.075158 0.575551 0.037133 -0.151489 -6.165820 6.190966 -1.075728 8.375532 0.118300 -0.232400 3.668500 -5.653638 -4.637364 0.438696 -77.613149 9.766751 9.287955 6.067095 -15.849779 -1.842480 -1.478447 -1.555389 -12.968692 16.012936 11.292141 3.948200 -7.125000 0.000000 0.000000 -8.553600 42.832400 0.461200 6.982148 4.786682 0.145714 78.819293 -2.693068 24.765288 -8.527712 19.927648 -2.396708 1.472540 0.118816 6.243182 -17.792538 -7.310043 2.623200 7.125000 0.000000 0.000000 6.481200 -37.889500 1.140300 
11.823351 18.150175 -6.386810 -136.671488 -84.367011 137.428283 0.533729 -1.059448 -0.988684 -19.992435 7.281630 -22.477003 0.161943 9.316410 24.533619 0.944410 2.363101 18.102404 1.194600 -6.935200 -19.523500 1.247874 -1.294290 2.198744 21.547972 -2.672950 14.142789 -1.744069 -8.892678 22.716734 2.846561 -28.639884 29.340612 -0.234700 -3.118000 8.607400 5.868438 1.396430 -0.548063 0.702568 1.972179 -2.108902 -5.529171 1.046278 0.487597 0.015186 -0.152451 -6.171876 6.222650 -1.082717 8.430064 0.123200 -0.231200 3.727400 -5.650857 -4.655292 0.433430 -77.603766 9.626323 9.201532 6.037504 -15.809846 -1.837079 -1.482708 -1.549299 -12.965301 16.006772 11.280795 3.941600 -7.125000 0.000000 0.000000 -8.552900 42.813000 0.465200 6.975381 4.809771 0.132778 78.890810 -2.866009 24.475540 -8.494212 19.865995 -2.386249 1.471419 0.116004 6.295670 -17.795891 -7.277612 2.611800 7.125000 0.000000 0.000000 6.474800 -37.854000 1.144800 
11.661135 18.165277 -6.392091 -138.709625 -84.581577 139.415537 0.543032 -1.004752 -0.923156 -20.284954 7.506059 -22.099523 0.184632 9.350035 24.690578 0.995527 2.015181 17.910842 1.237300 -7.053600 -19.874200 1.189646 -1.177559 2.109337 21.434701 -2.188015 13.327477 -2.188192 -9.598768 24.734546 2.637907 -29.088227 30.336424 -0.216900 -2.997800 8.272800 5.396262 1.347122 -0.470541 0.697157 1.916264 -2.125530 -5.344115 1.010556 0.388333 -0.008357 -0.146384 -6.164721 6.256859 -1.080133 8.461171 0.129800 -0.226600 3.766000 -5.645728 -4.678679 0.429946 -77.592775 9.461106 9.184725 6.036588 -15.807745 -1.839787 -1.484282 -1.543556 -13.016619 15.988325 11.255919 3.927400 -7.125000 0.000000 0.000000 -8.561500 42.777800 0.473200 6.971255 4.834080 0.123183 78.952344 -3.009245 24.207466 -8.458041 19.797715 -2.374506 1.471584 0.114265 6.323740 -17.802364 -7.258133 2.605700 7.125000 0.000000 0.000000 6.466400 -37.833100 1.146700 
11.505257 18.182386 -6.398744 -140.708886 -84.783310 141.360938 0.544672 -0.952303 -0.856273 -20.537597 7.668605 -21.713246 0.207651 9.378440 24.823108 1.025657 1.789438 17.778567 1.284900 -7.183100 -20.258900 1.114078 -1.054120 2.004780 21.387624 -1.650168 12.512150 -2.635533 -10.268266 26.723193 2.420879 -29.315947 31.171447 -0.188900 -2.799300 7.720400 4.935002 1.294390 -0.362026 0.694207 1.855185 -2.138937 -5.153208 0.973099 0.288844 -0.031241 -0.133003 -6.146135 6.292056 -1.067665 8.469016 0.136400 -0.218300 3.782700 -5.639507 -4.704852 0.428590 -77.573180 9.272659 9.266589 6.067232 -15.849940 -1.851795 -1.484023 -1.539220 -13.148236 15.974021 11.217591 3.909900 -7.125000 0.000000 0.000000 -8.563300 42.728400 0.483800 6.969655 4.858266 0.118203 79.006073 -3.111111 23.968686 -8.413475 19.716252 -2.359590 1.473697 0.111365 6.312370 -17.836585 -7.229544 2.600200 7.125000 0.000000 0.000000 6.431100 -37.802400 1.145200 
11.354341 18.201290 -6.406137 -142.918257 -84.967623 143.504131 0.540423 -0.898106 -0.786376 -20.770104 7.764792 -21.297027 0.228407 9.397934 24.919874 1.033048 1.685738 17.679212 1.345600 -7.343900 -20.738400 1.019355 -0.923972 1.884170 21.376519 -1.065349 11.706268 -3.076384 -10.894478 28.675820 2.224022 -29.254697 31.735241 -0.158100 -2.562000 7.061600 4.477028 1.243442 -0.224693 0.691518 1.795425 -2.148058 -4.961926 0.937702 0.194283 -0.051030 -0.112952 -6.117155 6.325291 -1.046474 8.458429 0.140800 -0.206800 3.780600 -5.633556 -4.732033 0.429681 -77.540401 9.057045 9.438406 6.123022 -15.927425 -1.871257 -1.482075 -1.537867 -13.341101 15.957666 11.186427 3.894600 -7.125000 0.000000 0.000000 -8.568500 42.687500 0.492800 6.970349 4.882124 0.117792 79.053600 -3.173014 23.759689 -8.359929 19.621980 -2.341424 1.477460 0.107281 6.277736 -17.894129 -7.194178 2.595200 7.125000 0.000000 0.000000 6.373400 -37.764300 1.140800 
11.207228 18.221250 -6.413107 -145.534255 -85.137638 146.037223 0.531299 -0.839707 -0.712688 -21.008128 7.816763 -20.841304 0.244623 9.406154 24.975721 1.024278 1.669253 17.601421 1.418100 -7.531100 -21.298500 0.905434 -0.789645 1.749081 21.359988 -0.459765 10.910997 -3.500863 -11.471314 30.578575 2.061894 -28.854117 31.973788 -0.130200 -2.326300 6.408300 4.020548 1.196268 -0.066420 0.686715 1.739525 -2.151924 -4.780775 0.906311 0.112448 -0.067216 -0.086352 -6.081721 6.354725 -1.016134 8.436307 0.142900 -0.191500 3.764500 -5.629258 -4.757787 0.432761 -77.493077 8.820826 9.712639 6.205476 -16.042437 -1.898807 -1.480489 -1.541160 -13.598542 15.964596 11.177383 3.892800 -7.125000 0.000000 0.000000 -8.555700 42.674300 0.494900 6.972208 4.904921 0.121838 79.095354 -3.196107 23.566561 -8.295968 19.514993 -2.319988 1.482326 0.101791 6.252860 -17.966372 -7.155942 2.591100 7.125000 0.000000 0.000000 6.301700 -37.723100 1.134200 
11.062227 18.241633 -6.418810 -148.730556 -85.296124 149.133395 0.516910 -0.776397 -0.635129 -21.271871 7.866353 -20.351964 0.253743 9.401707 24.990121 1.012007 1.683653 17.548772 1.498400 -7.732200 -21.903500 0.773307 -0.654457 1.602430 21.305666 0.142409 10.125242 -3.901063 -11.995492 32.416353 1.943845 -28.115974 31.867760 -0.110100 -2.139400 5.891100 3.558599 1.153310 0.099117 0.678344 1.687894 -2.149940 -4.614188 0.879365 0.051712 -0.083781 -0.055402 -6.043780 6.381260 -0.979571 8.410398 0.144900 -0.173600 3.740500 -5.628503 -4.780031 0.437856 -77.429958 8.561794 10.055777 6.305430 -16.180571 -1.931345 -1.477892 -1.546314 -13.871970 15.968442 11.174299 3.892700 -7.125000 0.000000 0.000000 -8.547200 42.668600 0.495600 6.974365 4.925755 0.129741 79.130474 -3.186212 23.384496 -8.222846 19.398652 -2.295856 1.487001 0.094534 6.261267 -18.040767 -7.108493 2.583600 7.125000 0.000000 0.000000 6.227100 -37.671400 1.128600 
